<svg width="24" height="24" viewBox="0 0 24 24" fill="none" xmlns="http://www.w3.org/2000/svg">
<rect width="24" height="24" fill="#E2E2E2"/>
<g id="Pop up">
<rect x="-273" y="-14" width="311" height="471" rx="15" fill="#FAFAFA"/>
<g id="leave a review about our chocolate">
<path d="M-247.12 37V23H-244.52V34.8H-237.2V37H-247.12ZM-233.347 28.82H-226.387V30.96H-233.347V28.82ZM-233.147 34.82H-225.247V37H-235.747V23H-225.527V25.18H-233.147V34.82ZM-224.929 37L-218.629 23H-216.069L-209.749 37H-212.469L-217.889 24.38H-216.849L-222.249 37H-224.929ZM-222.029 33.76L-221.329 31.72H-213.769L-213.069 33.76H-222.029ZM-205.171 37L-211.291 23H-208.471L-203.011 35.66H-204.631L-199.111 23H-196.511L-202.611 37H-205.171ZM-193.233 28.82H-186.273V30.96H-193.233V28.82ZM-193.033 34.82H-185.133V37H-195.633V23H-185.413V25.18H-193.033V34.82ZM-179.887 37L-173.587 23H-171.027L-164.707 37H-167.427L-172.847 24.38H-171.807L-177.207 37H-179.887ZM-176.987 33.76L-176.287 31.72H-168.727L-168.027 33.76H-176.987ZM-158.6 37V23H-152.84C-151.6 23 -150.54 23.2 -149.66 23.6C-148.766 24 -148.08 24.5733 -147.6 25.32C-147.12 26.0667 -146.88 26.9533 -146.88 27.98C-146.88 29.0067 -147.12 29.8933 -147.6 30.64C-148.08 31.3733 -148.766 31.94 -149.66 32.34C-150.54 32.7267 -151.6 32.92 -152.84 32.92H-157.16L-156 31.74V37H-158.6ZM-149.44 37L-152.98 31.92H-150.2L-146.64 37H-149.44ZM-156 32.02L-157.16 30.78H-152.96C-151.813 30.78 -150.953 30.5333 -150.38 30.04C-149.793 29.5467 -149.5 28.86 -149.5 27.98C-149.5 27.0867 -149.793 26.4 -150.38 25.92C-150.953 25.44 -151.813 25.2 -152.96 25.2H-157.16L-156 23.92V32.02ZM-142.171 28.82H-135.211V30.96H-142.171V28.82ZM-141.971 34.82H-134.071V37H-144.571V23H-134.351V25.18H-141.971V34.82ZM-127.828 37L-133.948 23H-131.128L-125.668 35.66H-127.288L-121.768 23H-119.168L-125.268 37H-127.828ZM-118.29 37V23H-115.69V37H-118.29ZM-110.104 28.82H-103.144V30.96H-110.104V28.82ZM-109.904 34.82H-102.004V37H-112.504V23H-102.284V25.18H-109.904V34.82ZM-96.6005 37L-101.24 23H-98.5405L-94.4005 35.66H-95.7405L-91.4405 23H-89.0405L-84.8605 35.66H-86.1605L-81.9205 23H-79.4405L-84.0805 37H-86.8405L-90.6605 25.58H-89.9405L-93.8205 37H-96.6005ZM-249.1 61L-242.8 47H-240.24L-233.92 61H-236.64L-242.06 48.38H-241.02L-246.42 61H-249.1ZM-246.2 57.76L-245.5 55.72H-237.94L-237.24 57.76H-246.2ZM-232.74 61V47H-226.18C-224.5 47 -223.22 47.3333 -222.34 48C-221.46 48.6533 -221.02 49.5333 -221.02 50.64C-221.02 51.3867 -221.193 52.0267 -221.54 52.56C-221.886 53.08 -222.353 53.4867 -222.94 53.78C-223.513 54.06 -224.14 54.2 -224.82 54.2L-224.46 53.48C-223.673 53.48 -222.966 53.6267 -222.34 53.92C-221.713 54.2 -221.22 54.6133 -220.86 55.16C-220.486 55.7067 -220.3 56.3867 -220.3 57.2C-220.3 58.4 -220.76 59.3333 -221.68 60C-222.6 60.6667 -223.966 61 -225.78 61H-232.74ZM-230.14 58.96H-225.94C-224.966 58.96 -224.22 58.8 -223.7 58.48C-223.18 58.16 -222.92 57.6467 -222.92 56.94C-222.92 56.2467 -223.18 55.74 -223.7 55.42C-224.22 55.0867 -224.966 54.92 -225.94 54.92H-230.34V52.9H-226.46C-225.553 52.9 -224.86 52.74 -224.38 52.42C-223.886 52.1 -223.64 51.62 -223.64 50.98C-223.64 50.3267 -223.886 49.84 -224.38 49.52C-224.86 49.2 -225.553 49.04 -226.46 49.04H-230.14V58.96ZM-211.565 61.2C-212.658 61.2 -213.665 61.02 -214.585 60.66C-215.505 60.3 -216.305 59.8 -216.985 59.16C-217.665 58.5067 -218.191 57.7467 -218.565 56.88C-218.938 56 -219.125 55.04 -219.125 54C-219.125 52.96 -218.938 52.0067 -218.565 51.14C-218.191 50.26 -217.665 49.5 -216.985 48.86C-216.305 48.2067 -215.505 47.7 -214.585 47.34C-213.665 46.98 -212.665 46.8 -211.585 46.8C-210.491 46.8 -209.491 46.98 -208.585 47.34C-207.665 47.7 -206.865 48.2067 -206.185 48.86C-205.505 49.5 -204.978 50.26 -204.605 51.14C-204.231 52.0067 -204.045 52.96 -204.045 54C-204.045 55.04 -204.231 56 -204.605 56.88C-204.978 57.76 -205.505 58.52 -206.185 59.16C-206.865 59.8 -207.665 60.3 -208.585 60.66C-209.491 61.02 -210.485 61.2 -211.565 61.2ZM-211.585 58.92C-210.878 58.92 -210.225 58.8 -209.625 58.56C-209.025 58.32 -208.505 57.98 -208.065 57.54C-207.625 57.0867 -207.285 56.5667 -207.045 55.98C-206.791 55.38 -206.665 54.72 -206.665 54C-206.665 53.28 -206.791 52.6267 -207.045 52.04C-207.285 51.44 -207.625 50.92 -208.065 50.48C-208.505 50.0267 -209.025 49.68 -209.625 49.44C-210.225 49.2 -210.878 49.08 -211.585 49.08C-212.291 49.08 -212.945 49.2 -213.545 49.44C-214.131 49.68 -214.651 50.0267 -215.105 50.48C-215.545 50.92 -215.891 51.44 -216.145 52.04C-216.385 52.6267 -216.505 53.28 -216.505 54C-216.505 54.7067 -216.385 55.36 -216.145 55.96C-215.891 56.56 -215.545 57.0867 -215.105 57.54C-214.665 57.98 -214.145 58.32 -213.545 58.56C-212.945 58.8 -212.291 58.92 -211.585 58.92ZM-195.869 61.2C-197.789 61.2 -199.295 60.66 -200.389 59.58C-201.469 58.5 -202.009 56.94 -202.009 54.9V47H-199.409V54.8C-199.409 56.24 -199.102 57.2867 -198.489 57.94C-197.862 58.5933 -196.982 58.92 -195.849 58.92C-194.715 58.92 -193.842 58.5933 -193.229 57.94C-192.615 57.2867 -192.309 56.24 -192.309 54.8V47H-189.749V54.9C-189.749 56.94 -190.295 58.5 -191.389 59.58C-192.469 60.66 -193.962 61.2 -195.869 61.2ZM-184.121 61V49.2H-188.761V47H-176.881V49.2H-181.521V61H-184.121Z" fill="#111111"/>
<path d="M-164.043 61.2C-165.136 61.2 -166.143 61.02 -167.063 60.66C-167.983 60.3 -168.783 59.8 -169.463 59.16C-170.143 58.5067 -170.669 57.7467 -171.043 56.88C-171.416 56 -171.603 55.04 -171.603 54C-171.603 52.96 -171.416 52.0067 -171.043 51.14C-170.669 50.26 -170.143 49.5 -169.463 48.86C-168.783 48.2067 -167.983 47.7 -167.063 47.34C-166.143 46.98 -165.143 46.8 -164.063 46.8C-162.969 46.8 -161.969 46.98 -161.063 47.34C-160.143 47.7 -159.343 48.2067 -158.663 48.86C-157.983 49.5 -157.456 50.26 -157.083 51.14C-156.709 52.0067 -156.523 52.96 -156.523 54C-156.523 55.04 -156.709 56 -157.083 56.88C-157.456 57.76 -157.983 58.52 -158.663 59.16C-159.343 59.8 -160.143 60.3 -161.063 60.66C-161.969 61.02 -162.963 61.2 -164.043 61.2ZM-164.063 58.92C-163.356 58.92 -162.703 58.8 -162.103 58.56C-161.503 58.32 -160.983 57.98 -160.543 57.54C-160.103 57.0867 -159.763 56.5667 -159.523 55.98C-159.269 55.38 -159.143 54.72 -159.143 54C-159.143 53.28 -159.269 52.6267 -159.523 52.04C-159.763 51.44 -160.103 50.92 -160.543 50.48C-160.983 50.0267 -161.503 49.68 -162.103 49.44C-162.703 49.2 -163.356 49.08 -164.063 49.08C-164.769 49.08 -165.423 49.2 -166.023 49.44C-166.609 49.68 -167.129 50.0267 -167.583 50.48C-168.023 50.92 -168.369 51.44 -168.623 52.04C-168.863 52.6267 -168.983 53.28 -168.983 54C-168.983 54.7067 -168.863 55.36 -168.623 55.96C-168.369 56.56 -168.023 57.0867 -167.583 57.54C-167.143 57.98 -166.623 58.32 -166.023 58.56C-165.423 58.8 -164.769 58.92 -164.063 58.92ZM-148.347 61.2C-150.267 61.2 -151.774 60.66 -152.867 59.58C-153.947 58.5 -154.487 56.94 -154.487 54.9V47H-151.887V54.8C-151.887 56.24 -151.58 57.2867 -150.967 57.94C-150.34 58.5933 -149.46 58.92 -148.327 58.92C-147.194 58.92 -146.32 58.5933 -145.707 57.94C-145.094 57.2867 -144.787 56.24 -144.787 54.8V47H-142.227V54.9C-142.227 56.94 -142.774 58.5 -143.867 59.58C-144.947 60.66 -146.44 61.2 -148.347 61.2ZM-139.186 61V47H-133.426C-132.186 47 -131.126 47.2 -130.246 47.6C-129.352 48 -128.666 48.5733 -128.186 49.32C-127.706 50.0667 -127.466 50.9533 -127.466 51.98C-127.466 53.0067 -127.706 53.8933 -128.186 54.64C-128.666 55.3733 -129.352 55.94 -130.246 56.34C-131.126 56.7267 -132.186 56.92 -133.426 56.92H-137.746L-136.586 55.74V61H-139.186ZM-130.026 61L-133.566 55.92H-130.786L-127.226 61H-130.026ZM-136.586 56.02L-137.746 54.78H-133.546C-132.399 54.78 -131.539 54.5333 -130.966 54.04C-130.379 53.5467 -130.086 52.86 -130.086 51.98C-130.086 51.0867 -130.379 50.4 -130.966 49.92C-131.539 49.44 -132.399 49.2 -133.546 49.2H-137.746L-136.586 47.92V56.02ZM-113.749 61.2C-114.816 61.2 -115.809 61.0267 -116.729 60.68C-117.636 60.32 -118.429 59.82 -119.109 59.18C-119.776 58.5267 -120.296 57.76 -120.669 56.88C-121.043 56 -121.229 55.04 -121.229 54C-121.229 52.96 -121.043 52 -120.669 51.12C-120.296 50.24 -119.769 49.48 -119.089 48.84C-118.409 48.1867 -117.616 47.6867 -116.709 47.34C-115.803 46.98 -114.809 46.8 -113.729 46.8C-112.583 46.8 -111.536 47 -110.589 47.4C-109.643 47.7867 -108.843 48.3667 -108.189 49.14L-109.869 50.72C-110.376 50.1733 -110.943 49.7667 -111.569 49.5C-112.196 49.22 -112.876 49.08 -113.609 49.08C-114.343 49.08 -115.016 49.2 -115.629 49.44C-116.229 49.68 -116.756 50.02 -117.209 50.46C-117.649 50.9 -117.996 51.42 -118.249 52.02C-118.489 52.62 -118.609 53.28 -118.609 54C-118.609 54.72 -118.489 55.38 -118.249 55.98C-117.996 56.58 -117.649 57.1 -117.209 57.54C-116.756 57.98 -116.229 58.32 -115.629 58.56C-115.016 58.8 -114.343 58.92 -113.609 58.92C-112.876 58.92 -112.196 58.7867 -111.569 58.52C-110.943 58.24 -110.376 57.82 -109.869 57.26L-108.189 58.86C-108.843 59.62 -109.643 60.2 -110.589 60.6C-111.536 61 -112.589 61.2 -113.749 61.2ZM-96.4581 47H-93.8581V61H-96.4581V47ZM-103.698 61H-106.298V47H-103.698V61ZM-96.2581 55H-103.918V52.78H-96.2581V55ZM-84.1467 61.2C-85.24 61.2 -86.2467 61.02 -87.1667 60.66C-88.0867 60.3 -88.8867 59.8 -89.5667 59.16C-90.2467 58.5067 -90.7734 57.7467 -91.1467 56.88C-91.52 56 -91.7067 55.04 -91.7067 54C-91.7067 52.96 -91.52 52.0067 -91.1467 51.14C-90.7734 50.26 -90.2467 49.5 -89.5667 48.86C-88.8867 48.2067 -88.0867 47.7 -87.1667 47.34C-86.2467 46.98 -85.2467 46.8 -84.1667 46.8C-83.0734 46.8 -82.0734 46.98 -81.1667 47.34C-80.2467 47.7 -79.4467 48.2067 -78.7667 48.86C-78.0867 49.5 -77.56 50.26 -77.1867 51.14C-76.8134 52.0067 -76.6267 52.96 -76.6267 54C-76.6267 55.04 -76.8134 56 -77.1867 56.88C-77.56 57.76 -78.0867 58.52 -78.7667 59.16C-79.4467 59.8 -80.2467 60.3 -81.1667 60.66C-82.0734 61.02 -83.0667 61.2 -84.1467 61.2ZM-84.1667 58.92C-83.46 58.92 -82.8067 58.8 -82.2067 58.56C-81.6067 58.32 -81.0867 57.98 -80.6467 57.54C-80.2067 57.0867 -79.8667 56.5667 -79.6267 55.98C-79.3734 55.38 -79.2467 54.72 -79.2467 54C-79.2467 53.28 -79.3734 52.6267 -79.6267 52.04C-79.8667 51.44 -80.2067 50.92 -80.6467 50.48C-81.0867 50.0267 -81.6067 49.68 -82.2067 49.44C-82.8067 49.2 -83.46 49.08 -84.1667 49.08C-84.8734 49.08 -85.5267 49.2 -86.1267 49.44C-86.7134 49.68 -87.2334 50.0267 -87.6867 50.48C-88.1267 50.92 -88.4734 51.44 -88.7267 52.04C-88.9667 52.6267 -89.0867 53.28 -89.0867 54C-89.0867 54.7067 -88.9667 55.36 -88.7267 55.96C-88.4734 56.56 -88.1267 57.0867 -87.6867 57.54C-87.2467 57.98 -86.7267 58.32 -86.1267 58.56C-85.5267 58.8 -84.8734 58.92 -84.1667 58.92ZM-67.9908 61.2C-69.0575 61.2 -70.0508 61.0267 -70.9708 60.68C-71.8775 60.32 -72.6708 59.82 -73.3508 59.18C-74.0175 58.5267 -74.5375 57.76 -74.9108 56.88C-75.2841 56 -75.4708 55.04 -75.4708 54C-75.4708 52.96 -75.2841 52 -74.9108 51.12C-74.5375 50.24 -74.0108 49.48 -73.3308 48.84C-72.6508 48.1867 -71.8575 47.6867 -70.9508 47.34C-70.0441 46.98 -69.0508 46.8 -67.9708 46.8C-66.8241 46.8 -65.7775 47 -64.8308 47.4C-63.8841 47.7867 -63.0841 48.3667 -62.4308 49.14L-64.1108 50.72C-64.6175 50.1733 -65.1841 49.7667 -65.8108 49.5C-66.4375 49.22 -67.1175 49.08 -67.8508 49.08C-68.5841 49.08 -69.2575 49.2 -69.8708 49.44C-70.4708 49.68 -70.9975 50.02 -71.4508 50.46C-71.8908 50.9 -72.2375 51.42 -72.4908 52.02C-72.7308 52.62 -72.8508 53.28 -72.8508 54C-72.8508 54.72 -72.7308 55.38 -72.4908 55.98C-72.2375 56.58 -71.8908 57.1 -71.4508 57.54C-70.9975 57.98 -70.4708 58.32 -69.8708 58.56C-69.2575 58.8 -68.5841 58.92 -67.8508 58.92C-67.1175 58.92 -66.4375 58.7867 -65.8108 58.52C-65.1841 58.24 -64.6175 57.82 -64.1108 57.26L-62.4308 58.86C-63.0841 59.62 -63.8841 60.2 -64.8308 60.6C-65.7775 61 -66.8308 61.2 -67.9908 61.2ZM-54.2725 61.2C-55.3658 61.2 -56.3725 61.02 -57.2925 60.66C-58.2125 60.3 -59.0125 59.8 -59.6925 59.16C-60.3725 58.5067 -60.8992 57.7467 -61.2725 56.88C-61.6458 56 -61.8325 55.04 -61.8325 54C-61.8325 52.96 -61.6458 52.0067 -61.2725 51.14C-60.8992 50.26 -60.3725 49.5 -59.6925 48.86C-59.0125 48.2067 -58.2125 47.7 -57.2925 47.34C-56.3725 46.98 -55.3725 46.8 -54.2925 46.8C-53.1992 46.8 -52.1992 46.98 -51.2925 47.34C-50.3725 47.7 -49.5725 48.2067 -48.8925 48.86C-48.2125 49.5 -47.6858 50.26 -47.3125 51.14C-46.9392 52.0067 -46.7525 52.96 -46.7525 54C-46.7525 55.04 -46.9392 56 -47.3125 56.88C-47.6858 57.76 -48.2125 58.52 -48.8925 59.16C-49.5725 59.8 -50.3725 60.3 -51.2925 60.66C-52.1992 61.02 -53.1925 61.2 -54.2725 61.2ZM-54.2925 58.92C-53.5858 58.92 -52.9325 58.8 -52.3325 58.56C-51.7325 58.32 -51.2125 57.98 -50.7725 57.54C-50.3325 57.0867 -49.9925 56.5667 -49.7525 55.98C-49.4992 55.38 -49.3725 54.72 -49.3725 54C-49.3725 53.28 -49.4992 52.6267 -49.7525 52.04C-49.9925 51.44 -50.3325 50.92 -50.7725 50.48C-51.2125 50.0267 -51.7325 49.68 -52.3325 49.44C-52.9325 49.2 -53.5858 49.08 -54.2925 49.08C-54.9992 49.08 -55.6525 49.2 -56.2525 49.44C-56.8392 49.68 -57.3592 50.0267 -57.8125 50.48C-58.2525 50.92 -58.5992 51.44 -58.8525 52.04C-59.0925 52.6267 -59.2125 53.28 -59.2125 54C-59.2125 54.7067 -59.0925 55.36 -58.8525 55.96C-58.5992 56.56 -58.2525 57.0867 -57.8125 57.54C-57.3725 57.98 -56.8525 58.32 -56.2525 58.56C-55.6525 58.8 -54.9992 58.92 -54.2925 58.92ZM-44.5966 61V47H-41.9966V58.8H-34.6766V61H-44.5966ZM-35.1844 61L-28.8844 47H-26.3244L-20.0044 61H-22.7244L-28.1444 48.38H-27.1044L-32.5044 61H-35.1844ZM-32.2844 57.76L-31.5844 55.72H-24.0244L-23.3244 57.76H-32.2844ZM-16.687 61V49.2H-21.327V47H-9.44703V49.2H-14.087V61H-16.687ZM-5.69578 52.82H1.26422V54.96H-5.69578V52.82ZM-5.49578 58.82H2.40422V61H-8.09578V47H2.12422V49.18H-5.49578V58.82Z" fill="#FD9222"/>
</g>
<g id="x-close">
<path id="Icon" d="M18 6L6 18" stroke="#111111" stroke-width="2" stroke-linecap="round" stroke-linejoin="round"/>
<path id="Icon_2" d="M6 6L18 18" stroke="#111111" stroke-width="2" stroke-linecap="round" stroke-linejoin="round"/>
</g>
</g>
</svg>
