<svg aria-hidden="true" style="position:absolute;width:0;height:0;overflow:hidden" xmlns="http://www.w3.org/2000/svg">
    <defs>
        <symbol id="Ellipse" viewBox="0 0 32 32">
            <path d="M16 32c8.837 0 16-7.163 16-16S24.837 0 16 0 0 7.163 0 16s7.163 16 16 16z"/>
        </symbol>
        <symbol id="Rectangle" viewBox="0 0 69 32">
            <path d="M52.923 0H16C7.163 0 0 7.163 0 16s7.163 16 16 16h36.923c8.837 0 16-7.163 16-16s-7.163-16-16-16z"/>
        </symbol>
        <symbol id="x-close" viewBox="0 0 32 32">
            <path fill="#e2e2e2" style="fill: var(--color1, #e2e2e2)" d="M0 0h32v32h-32v-32z"></path>
            <path fill="#fafafa" style="fill: var(--color2, #fafafa)" d="M-344-18.667h374.667c11.046 0 20 8.954 20 20v588c0 11.046-8.954 20-20 20h-374.667c-11.046 0-20-8.954-20-20v-588c0-11.046 8.954-20 20-20z"></path>
            <path fill="none" stroke="#111" style="stroke: var(--color3, #111)" stroke-linejoin="round" stroke-linecap="round" stroke-miterlimit="4" stroke-width="2.6667" d="M24 8l-16 16"></path>
            <path fill="none" stroke="#111" style="stroke: var(--color3, #111)" stroke-linejoin="round" stroke-linecap="round" stroke-miterlimit="4" stroke-width="2.6667" d="M8 8l16 16"></path>
        </symbol>
    </defs>
</svg>