<svg aria-hidden="true" style="position:absolute;width:0;height:0;overflow:hidden" xmlns="http://www.w3.org/2000/svg">
    <defs>
        <symbol id="Ellipse" viewBox="0 0 32 32">
            <path d="M16 32c8.837 0 16-7.163 16-16S24.837 0 16 0 0 7.163 0 16s7.163 16 16 16z"/>
        </symbol>
        <symbol id="Rectangle" viewBox="0 0 69 32">
            <path d="M52.923 0H16C7.163 0 0 7.163 0 16s7.163 16 16 16h36.923c8.837 0 16-7.163 16-16s-7.163-16-16-16z"/>
        </symbol>
        <symbol id="x-close" viewBox="0 0 32 32">
            <path stroke-linejoin="round" stroke-linecap="round" stroke-miterlimit="4" stroke-width="2.2857" d="M24 8l-16 16"></path>
            <path stroke-linejoin="round" stroke-linecap="round" stroke-miterlimit="4" stroke-width="2.2857" d="M8 8l16 16"></path>
        </symbol>
        <symbol id="Frame" viewBox="0 0 40 32">
            <path  d="M40.209 0.495h-39.902v29.695h39.902v-29.695z"></path>
            <path  d="M0.307 0.495h39.902v14.847h-39.902v-14.847z"></path>
        </symbol>
    </defs>
</svg>